<?xml version="1.0" encoding="UTF-8" standalone="no"?>
<svg
   xmlns="http://www.w3.org/2000/svg"
   viewBox="0 0 500 500"
   width="100%"
   height="100%">
   <g
     transform="matrix(0.50161705,0,0,0.50153283,-182.50537,83.894932)"><path
       style="fill:#c91f26"
       d="m 835.72223,829.49724 c -3.3,-0.21062 -13.2,-1.08953 -22,-1.95315 l -16,-1.57021 -17.72262,-2.96801 -17.72262,-2.96802 -16.27738,-3.99717 C 666.71642,796.57143 599.34031,761.97384 536.33163,708.37632 l -11.3906,-9.68927 -15.14737,-15.14737 -15.14737,-15.14737 -9.68927,-11.3906 C 431.34905,593.98074 396.76294,526.62052 377.28313,447.29508 l -4.0067,-16.31604 -3.01681,-18.18396 c -1.65925,-10.00118 -3.78378,-25.15897 -4.72118,-33.68397 l -1.70437,-15.5 0,-32.5 0,-32.5 1.70437,-15.5 c 0.9374,-8.525 3.06193,-23.68279 4.72118,-33.68397 l 3.01681,-18.18396 4.0067,-16.31604 C 396.76294,135.6017 431.34905,68.24148 484.95702,5.22051 l 9.68927,-11.3906 15.14737,-15.14737 15.14737,-15.14737 11.3906,-9.68927 c 63.02097,-53.607974 130.38119,-88.19408 209.70663,-107.67389 l 16.31604,-4.0067 18.18396,-3.01681 c 10.00118,-1.65925 25.15897,-3.78378 33.68397,-4.72118 l 15.5,-1.70437 32.5,0 32.5,0 15.5,1.70437 c 8.525,0.9374 23.68279,3.06193 33.68397,4.72118 l 18.18396,3.01681 16.31604,4.0067 c 79.3254,19.47981 146.6857,54.065916 209.7066,107.67389 l 11.3906,9.68927 15.1474,15.14737 15.1474,15.14737 9.6892,11.3906 c 53.608,63.02097 88.1941,130.38119 107.6739,209.70663 l 4.0067,16.31604 3.0168,18.18396 c 1.6593,10.00118 3.7838,25.15897 4.7212,33.68397 l 1.7044,15.5 0,32.5 0,32.5 -1.7044,15.5 c -0.9374,8.525 -3.0619,23.68279 -4.7212,33.68397 l -3.0168,18.18396 -4.0067,16.31604 c -19.4798,79.32544 -54.0659,146.68566 -107.6739,209.70663 l -9.6892,11.3906 -15.1474,15.14737 -15.1474,15.14737 -11.3906,9.68927 c -63.0209,53.60797 -130.3812,88.19408 -209.7066,107.67389 l -16.31604,4.0067 -18.18396,3.01511 c -10.00118,1.65831 -24.70897,3.71276 -32.68397,4.56544 l -14.5,1.55033 -27.5,0.34619 c -15.125,0.19041 -30.2,0.17387 -33.5,-0.0367 z" /><path
       style="fill:#ffffff"
       d="m 719.38605,683.59225 -1.98133,-2.51886 -0.5787,-4.73114 c -0.31828,-2.60213 -1.09691,-11.93114 -1.73029,-20.73114 l -1.1516,-16 -0.0217,-29.5 -0.0217,-29.5 1.20723,-14 c 1.98251,-22.99073 5.09015,-40.1751 14.01521,-77.5 1.64393,-6.875 11.14535,-46.7 21.11426,-88.5 l 18.12529,-76 -0.44721,-2.5 c -0.24596,-1.375 -1.83187,-7.9 -3.52424,-14.5 l -3.07704,-12 -1.54597,-10.62834 -1.54603,-10.62834 0,-15.5493 0,-15.5493 1.07,-7.82236 1.07001,-7.82236 3.56716,-10.79732 3.56716,-10.79732 5.07141,-8.50722 5.07141,-8.50721 7.04143,-7.24326 7.04142,-7.24326 6.32236,-4.28861 c 3.4773,-2.35873 9.10425,-5.59041 12.50434,-7.1815 l 6.18197,-2.89289 5.38215,-1.0207 c 2.96019,-0.56139 7.45824,-1.0129 9.99567,-1.00335 l 4.61351,0.0174 7,1.47619 7,1.4762 6.5,3.17354 6.5,3.17354 7.27399,7.24398 7.27398,7.24399 3.36326,7.33891 3.36327,7.33892 1.11275,5.29922 1.11275,5.29922 0,10.95736 0,10.95736 -1.52046,10.24342 c -2.0204,13.61146 -6.30064,31.04376 -11.94141,48.63423 -5.41228,16.87791 -9.48533,31.28081 -16.46095,58.20824 l -5.07718,19.59903 0,3.99098 0,3.99098 1.98261,7.75192 1.9826,7.75192 3.26458,6.65804 3.26457,6.65805 7.00282,7.12183 7.00282,7.12184 7.08658,3.55844 7.08659,3.55844 6.07965,1.5754 6.07966,1.5754 7.33376,0.61507 7.33376,0.61507 7.20237,-1.12242 7.20236,-1.12243 8.47649,-3.06715 8.47649,-3.06715 9.32114,-6.11637 9.32115,-6.11637 8.53866,-8.59428 8.53867,-8.59429 6.31167,-9.43606 6.31168,-9.43606 5.76249,-11.53445 c 7.4895,-14.99124 12.2014,-27.07634 16.4724,-42.24912 6.7458,-23.96415 11.6949,-54.46871 13.1067,-80.78534 l 0.6706,-12.5 -1.1588,-13.5 -1.1588,-13.5 -2.0317,-9.38642 c -3.977,-18.37432 -9.6528,-32.41412 -18.7116,-46.28599 l -5.0103,-7.6724 -7.29286,-7.67751 -7.29288,-7.6775 -8.52796,-6.4306 -8.52797,-6.43061 -13.5,-6.77181 -13.5,-6.77181 -12.5,-4.14035 -12.5,-4.14034 -10,-2.01474 c -5.5,-1.10811 -15.175,-2.53641 -21.5,-3.174 l -11.5,-1.15925 -12.6414,0.64768 -12.6414,0.64768 -9.3586,1.49722 c -5.14723,0.82347 -14.4887,2.85858 -20.75881,4.52248 l -11.40022,3.02526 -10.09978,3.99756 c -44.42928,17.58538 -79.39702,50.35407 -99.66307,93.39545 l -4.7085,10 -3.57432,11.10841 -3.57431,11.10841 -2.1861,12.39159 -2.18611,12.39159 0.028,17.5 0.028,17.5 2.03034,10 2.03035,10 3.13469,8.61768 3.13469,8.61769 4.85953,7.88231 4.85953,7.88232 5.23796,5.97296 5.23796,5.97296 1.35582,3.24492 1.35581,3.24492 0,3.35904 0,3.35904 -5.84983,18.45549 c -3.2174,10.15052 -6.66889,20.18153 -7.66996,22.29114 l -1.82014,3.83565 -3.08003,1.8782 -3.08004,1.8782 -4.0529,0.004 -4.05289,0.004 -7.94711,-3.8845 -7.9471,-3.8845 -7.34361,-5.20729 c -4.03899,-2.86401 -10.73766,-8.42848 -14.88592,-12.3655 l -7.54231,-7.15821 -6.17064,-8 c -15.02699,-19.4819 -22.78694,-36.91077 -28.09516,-63.10184 l -2.45272,-12.10184 -1.05675,-15.04355 -1.05674,-15.04354 1.04541,-13.89357 1.04542,-13.89356 2.00067,-11.11079 2.00067,-11.11078 3.45768,-12.01293 c 8.79663,-30.56186 23.71173,-60.89915 41.83771,-85.09783 l 7.18313,-9.59029 13.01655,-13.05304 13.01655,-13.05303 11.5,-8.51517 c 24.46744,-18.11692 46.74301,-29.63625 78,-40.33605 29.88596,-10.23047 60.35174,-16.18924 92.5,-18.09199 l 11,-0.65105 15.20195,1.13351 15.20194,1.13351 11.79806,1.92702 c 15.56972,2.54306 37.2087,8.03951 53.56769,13.60655 l 13.23036,4.50235 14.99997,7.33192 15,7.33193 10.5,6.95156 c 32.817,21.72659 57.2375,48.96451 74.7878,83.41637 7.1267,13.98978 13.3065,29.61893 17.2143,43.53597 l 2.9639,10.55518 1.0714,8.13723 1.0715,8.13723 0.5915,26.00725 0.5915,26.00726 -1.2305,14.99274 -1.2304,14.99275 -2.3805,14.22155 c -3.1154,18.61222 -6.5183,32.33813 -12.674,51.12248 l -5.0283,15.34403 -7.8078,15.65597 -7.8077,15.65597 -5.9104,8.82768 c -3.2507,4.85523 -9.2431,12.89473 -13.3163,17.86556 l -7.406,9.03787 -8.7712,8.35567 c -15.7252,14.98015 -30.7856,25.30371 -50.749,34.78723 l -11.47977,5.45341 -12,3.99384 -12,3.99385 -11.54748,2.57609 -11.54749,2.57609 -12.70251,1.13136 -12.70252,1.13136 -12.29217,-1.09481 -12.29218,-1.09481 -9.53159,-2.41789 -9.5316,-2.41789 -7.71665,-3.21245 -7.71665,-3.21245 -7.70958,-5.01814 -7.70958,-5.01815 -9.73965,-9.54872 -9.73965,-9.54873 -0.6339,0.63389 c -0.34864,0.34864 -6.389,23.4908 -13.42301,51.42702 l -12.78912,50.79312 -3.68065,10.5 c -14.40905,41.1056 -40.80049,86.58937 -64.55154,111.25 l -4.5748,4.75 -3.61126,0 -3.61126,0 -1.98134,-2.51886 z" /></g></svg>
